<svg width="85" height="85" viewBox="0 0 85 85" fill="none" xmlns="http://www.w3.org/2000/svg">
<rect width="85" height="85" rx="12" fill="#F7A600"/>
<path d="M68 7H18C12.4772 7 8 11.4772 8 17V67C8 72.5229 12.4772 77 18 77H68C73.5229 77 78 72.5229 78 67V17C78 11.4772 73.5229 7 68 7Z" fill="#F7A600"/>
<path d="M66.5391 17.5391H19.5391V65.5391H66.5391V17.5391Z" fill="#F7A600"/>
<path d="M43.0391 17.5391C38.3912 17.5391 33.8477 18.9467 29.9832 21.5838C26.1186 24.221 23.1066 27.9693 21.3279 32.3547C19.5492 36.7401 19.0839 41.5657 19.9906 46.2213C20.8974 50.8768 23.1355 55.1532 26.4221 58.5097C29.7086 61.8661 33.8959 64.1519 38.4544 65.0779C43.013 66.004 47.7381 65.5287 52.0321 63.7122C56.3262 61.8957 59.9964 58.8195 62.5786 54.8728C65.1608 50.926 66.5391 46.2858 66.5391 41.5391C66.5391 35.1739 64.0632 29.0694 59.6561 24.5685C55.249 20.0677 49.2717 17.5391 43.0391 17.5391ZM43.0391 20.2815C47.1565 20.2815 51.1815 21.5285 54.605 23.8648C58.0285 26.2011 60.6968 29.5217 62.2723 33.4067C63.8479 37.2917 64.26 41.5667 63.4565 45.6909C62.653 49.8151 60.67 53.6034 57.7583 56.5766C54.8466 59.5498 51.137 61.5745 47.0986 62.3945C43.0602 63.2145 38.8743 62.793 35.0705 61.1834C31.2666 59.5738 28.0155 56.8483 25.7284 53.3516C23.4413 49.855 22.2209 45.7442 22.2214 41.5391C22.2284 35.9029 24.424 30.4996 28.3267 26.5145C32.2293 22.5294 37.5203 20.2879 43.0391 20.2815Z" fill="white"/>
<path d="M46.0356 33.6661C46.8652 33.6685 47.6605 34.0048 48.2487 34.6023C48.837 35.1997 49.1708 36.0099 49.1778 36.8572C49.1755 37.7052 48.8452 38.5179 48.2589 39.1184C47.6726 39.7188 46.8777 40.0583 46.0474 40.063L38.8378 40.084V33.6871L46.0356 33.6661ZM38.8553 49.2802V42.8832L48.226 42.8654C49.0401 42.8908 49.8125 43.2389 50.3795 43.836C50.9465 44.433 51.2636 45.232 51.2636 46.0638C51.2636 46.8955 50.9465 47.6946 50.3795 48.2917C49.8125 48.8887 49.0401 49.237 48.226 49.2624L38.8553 49.2802ZM50.6214 40.6073C51.5311 39.4544 51.9898 37.998 51.9086 36.5197C51.8275 35.0413 51.2123 33.6462 50.1822 32.6043C49.3446 31.7489 48.2687 31.1786 47.1016 30.9714V27.4126C47.1036 27.2278 47.0694 27.0445 47.001 26.8735C46.9326 26.7025 46.8314 26.5473 46.7033 26.4168C46.5768 26.2843 46.4249 26.1797 46.2572 26.1097C46.0894 26.0398 45.9093 26.0059 45.7282 26.0101C45.3659 26.0147 45.0198 26.1642 44.7642 26.4264C44.5085 26.6886 44.3637 27.0426 44.3606 27.4126V30.8608H42.138V27.4126C42.1404 27.2278 42.1063 27.0444 42.0379 26.8733C41.9695 26.7022 41.8681 26.547 41.7398 26.4168C41.5473 26.221 41.3024 26.0878 41.036 26.0342C40.7695 25.9806 40.4934 26.0089 40.2427 26.1155C39.992 26.222 39.7778 26.4022 39.6273 26.633C39.4768 26.8639 39.3967 27.1352 39.3971 27.4126V30.8698H34.6766C34.4955 30.8679 34.3158 30.9033 34.1483 30.9737C33.9808 31.0441 33.8288 31.148 33.7014 31.2795C33.4448 31.5429 33.3008 31.8993 33.3008 32.2709C33.3008 32.6424 33.4448 32.999 33.7014 33.2624C33.9622 33.5225 34.3121 33.6683 34.6766 33.669H36.091L36.1203 49.2742H34.7147C34.3763 49.2758 34.0503 49.4044 33.7987 49.6355C33.5471 49.8665 33.3874 50.1839 33.35 50.5273V50.677C33.3496 50.9266 33.4156 51.1716 33.5409 51.386C33.6662 51.6004 33.8462 51.776 34.0616 51.8941C34.2623 52.0139 34.491 52.0759 34.7234 52.0735H39.4556V55.7131C39.4562 55.9627 39.5215 56.2078 39.645 56.4232C39.7684 56.6386 39.9456 56.8166 40.1585 56.9393C40.3655 57.0499 40.5954 57.1084 40.829 57.1098C41.1223 57.1101 41.4076 57.0128 41.6417 56.8325C41.8758 56.6523 42.046 56.3989 42.1263 56.1109C42.1739 55.9808 42.1977 55.843 42.1966 55.7041V52.0615H44.4016V55.7041C44.4034 55.9535 44.4692 56.198 44.5925 56.4132C44.7159 56.6284 44.8924 56.8067 45.1044 56.9303C45.3099 57.039 45.5377 57.0964 45.7692 57.0978C45.95 57.0982 46.1292 57.0621 46.2963 56.9916C46.4635 56.9211 46.6154 56.8176 46.7432 56.687C46.8711 56.5564 46.9725 56.4013 47.0415 56.2306C47.1105 56.0598 47.1459 55.8769 47.1455 55.6922V52.0526H48.2202C49.7757 52.0438 51.2653 51.4099 52.3667 50.2881C53.0366 49.602 53.5332 48.7601 53.8139 47.8346C54.0946 46.9091 54.1509 45.9277 53.9781 44.975C53.8052 44.0224 53.4084 43.1268 52.8216 42.3655C52.2349 41.6042 51.4758 40.9999 50.6097 40.6044" fill="white"/>
</svg>
