<svg width="85" height="85" viewBox="0 0 85 85" fill="none" xmlns="http://www.w3.org/2000/svg">
<path d="M73.1944 0H11.8056C5.28553 0 0 5.28553 0 11.8056V73.1944C0 79.7145 5.28553 85 11.8056 85H73.1944C79.7145 85 85 79.7145 85 73.1944V11.8056C85 5.28553 79.7145 0 73.1944 0Z" fill="#BC170B"/>
<path fill-rule="evenodd" clip-rule="evenodd" d="M30.9935 48.6397C30.7184 52.1702 31.6916 53.6188 32.1231 54.0793C32.4323 54.4082 32.7228 54.5249 32.8918 54.5249C34.2205 54.5249 35.8186 52.0005 37.2795 47.5957C37.2844 46.5502 37.4013 44.7667 37.6265 42.2894C37.0959 41.8576 36.4332 41.459 35.5288 41.459C33.0392 41.459 31.3436 44.1439 30.9935 48.6397Z" fill="white"/>
<mask id="mask0_166_2232" style="mask-type:luminance" maskUnits="userSpaceOnUse" x="21" y="20" width="45" height="44">
<path fill-rule="evenodd" clip-rule="evenodd" d="M21 20H65.32V63.44H21V20Z" fill="white"/>
</mask>
<g mask="url(#mask0_166_2232)">
<path fill-rule="evenodd" clip-rule="evenodd" d="M60.2773 55.7581C58.1369 57.5291 55.5026 59.2329 52.0963 59.2329C50.5454 59.2329 49.4172 58.8567 48.6491 58.0832C47.696 57.1248 47.3979 55.6811 47.3196 53.8792C45.9141 57.4324 44.3705 59.2329 42.7216 59.2329C39.958 59.2329 38.2907 57.2594 37.6544 53.2135C36.4957 56.2833 34.762 59.2329 32.3788 59.2329C30.5755 59.2329 28.9538 58.5004 27.6885 57.1147C25.8335 55.0835 24.9746 51.9177 25.3315 48.4324C25.9512 42.3672 29.0276 39.0265 33.9923 39.0265C35.7797 39.0265 37.0238 39.3996 37.8542 39.8152C38.2737 34.3396 38.8146 27.97 38.9019 27.3639C38.9493 26.7762 39.1453 25.3966 39.9535 24.8103C40.4802 24.384 41.3271 24.2104 42.8677 24.2104C43.4391 24.2104 43.8889 24.3825 44.2049 24.7206C44.9039 25.4713 44.7946 26.8158 44.6562 28.5166C44.6219 28.9401 44.5862 29.3816 44.562 29.8338C44.524 30.4658 44.4182 31.6275 44.2848 33.1016C43.9672 36.6023 43.4868 41.8937 43.3218 46.4178C43.043 54.0633 43.8766 54.6068 43.9726 54.6433C44.592 54.6418 45.712 53.1998 46.8223 49.1403C47.065 48.2785 47.2641 47.6371 47.4269 47.1752L47.5496 44.0163C47.6241 42.6612 47.704 41.2512 47.781 39.8883C47.9963 36.0571 48.2009 32.4391 48.2009 31.9169C48.2009 31.7692 48.1785 31.6002 48.1554 31.422C48.0893 30.9058 48.0063 30.2649 48.4545 29.7592C48.8689 29.2932 49.6295 29.0771 50.849 29.0771C51.7218 29.0771 52.4241 29.3481 52.9374 29.8825C54.0524 31.0429 53.9474 33.1107 53.8847 34.3456C53.874 34.5618 53.8639 34.7491 53.8639 34.8938C53.8639 35.0842 53.8409 35.4481 53.8055 36.0009C53.7624 36.6876 53.7048 37.5935 53.6622 38.6412C55.1877 38.5667 57.875 38.4462 57.964 38.4462L58.0023 38.4448C58.2634 38.4448 58.4921 38.5515 58.6468 38.7448C58.882 39.0402 58.9216 39.5 58.7667 40.1533C58.393 41.5405 54.7841 41.7612 53.4726 41.7962C53.2118 46.3065 53.0574 49.6824 53.0574 50.8732C53.0574 55.2449 53.478 56.023 54.6634 56.023C55.3718 56.023 56.7271 55.5905 59.1904 53.5699C61.1248 51.8084 61.6928 54.5233 60.2773 55.7581ZM64.9521 52.0107C64.2032 50.0494 62.3825 48.7825 60.3109 48.7825C59.5358 48.7825 58.4393 48.9681 57.3366 49.6687C57.369 48.755 57.4274 47.409 57.5229 45.5757C59.7772 45.0488 62.1671 43.861 62.9069 41.1171C63.4835 38.6808 62.7239 37.0667 61.9641 36.1103C61.0275 34.9563 59.6436 34.2772 58.1472 34.2345C58.227 32.4833 58.247 29.3009 56.0173 26.9803C54.7069 25.6158 52.8709 24.8666 50.8484 24.8666C50.4574 24.8666 49.7237 24.868 48.8645 25.034C48.6685 23.923 48.2306 22.8296 47.3283 21.864C46.2071 20.6609 44.6231 20 42.8684 20C41.0461 20 38.956 20.1827 37.443 21.4131C35.4022 22.8902 34.8055 25.281 34.6932 26.767C34.604 27.3913 34.2857 31.1007 33.9843 34.8192C26.7624 34.8221 21.9458 39.7528 21.1001 48.0091C20.6217 52.6745 21.8736 57.0234 24.5341 59.938C26.5978 62.1976 29.3829 63.44 32.3788 63.44C34.1996 63.44 35.8421 62.8158 37.2983 61.5734C39.2699 63.1722 41.4643 63.44 42.7208 63.44C44.363 63.44 45.7255 62.8759 46.851 62.037C48.2716 62.9668 50.0275 63.44 52.0956 63.44C57.0461 63.44 60.6908 60.9002 63.0883 58.9178C65.0767 57.1818 65.8426 54.3434 64.9521 52.0107Z" fill="white"/>
</g>
</svg>
