<svg width="72" height="72" viewBox="0 0 72 72" fill="none" xmlns="http://www.w3.org/2000/svg">
<rect width="72" height="72" rx="10" fill="#213752"/>
<g clip-path="url(#clip0_297_2936)">
<path d="M41.8667 20.6315L42.7551 19.7499L43.6428 20.6321L42.7544 21.5137L41.8667 20.6315Z" fill="white"/>
<path d="M40.0894 18.8671L40.9777 17.9852L41.8658 18.8671L40.9777 19.749L40.0894 18.8671Z" fill="white"/>
<path d="M38.3132 17.1038L39.2016 16.2219L40.0896 17.1038L39.2016 17.9857L38.3132 17.1038Z" fill="white"/>
<path d="M45.4194 24.1595L46.3078 23.2776L47.1958 24.1595L46.3078 25.0414L45.4194 24.1595Z" fill="white"/>
<path d="M43.6428 22.3955L44.5309 21.5133L45.4192 22.3952L44.5312 23.2774L43.6428 22.3955Z" fill="white"/>
<path d="M53.3358 18.9432L50.227 15.856L49.783 16.2969C49.3083 16.7759 48.6116 16.9654 47.9572 16.7933C47.3031 16.6209 46.7922 16.1136 46.619 15.4638C46.4457 14.8142 46.6365 14.122 47.1191 13.6509L47.5631 13.21L44.4544 10.1233C43.7187 9.39248 42.5255 9.39248 41.7896 10.1233L39.5698 12.3281L38.2377 11.0052C37.5018 10.2744 36.3089 10.2744 35.5729 11.0052L16.4023 30.0431C15.6664 30.7739 15.6664 31.9588 16.4023 32.6894L19.5111 35.7766L19.9548 35.3357C20.7006 34.6286 21.8741 34.6286 22.6196 35.3357C23.3555 36.0662 23.3555 37.2511 22.6196 37.9817L22.1755 38.4226L25.2843 41.5105C26.02 42.2408 27.2125 42.2408 27.9482 41.5105L30.1683 39.3052L31.501 40.628C32.2366 41.3585 33.4292 41.3585 34.1651 40.628L53.3358 21.5889C54.0717 20.8581 54.0717 19.6732 53.3358 18.9426V18.9432ZM27.0595 40.6274C26.9418 40.7446 26.782 40.8104 26.6155 40.8104C26.4487 40.8104 26.2889 40.7446 26.1712 40.6274L23.9072 38.3779C24.7327 37.1412 24.5668 35.4983 23.5104 34.4492C22.4537 33.4001 20.7993 33.2357 19.5543 34.0558L17.2897 31.8075C17.0444 31.5639 17.0444 31.1692 17.2897 30.9256L36.461 11.8871C36.5787 11.7699 36.7385 11.7041 36.9053 11.7041C37.0721 11.7041 37.2319 11.7699 37.3497 11.8871L38.6817 13.21L22.619 29.1621C21.8836 29.8927 21.8836 31.0769 22.619 31.8075L25.7271 34.8947L26.1712 34.4538C26.9068 33.7229 28.1 33.7229 28.8356 34.4538C29.5716 35.1843 29.5716 36.3692 28.8356 37.0998L28.391 37.5407L29.2796 38.4226L27.0595 40.6274ZM52.4477 20.7076L33.2765 39.7455C33.0311 39.9891 32.6334 39.9891 32.3884 39.7455L30.1238 37.4966C30.9469 36.2599 30.7794 34.6188 29.7237 33.5713C28.6676 32.5259 27.0175 32.3605 25.7722 33.1751L23.507 30.9256C23.2617 30.6823 23.2617 30.2873 23.507 30.0437L42.6776 11.0052C42.7954 10.8883 42.9555 10.8222 43.122 10.8222C43.2888 10.8222 43.4486 10.8883 43.5663 11.0052L45.8309 13.2505C45.0063 14.4868 45.1725 16.1285 46.2283 17.1773C47.2841 18.2258 48.9375 18.3911 50.1825 17.5726L52.4483 19.8227C52.6933 20.066 52.6933 20.461 52.4483 20.7046L52.4477 20.7076Z" fill="white"/>
<path fill-rule="evenodd" clip-rule="evenodd" d="M55.9713 54.0168V54.4237H55.6414C55.4936 54.4237 55.1633 54.797 55.1633 55.0003L56.4155 57.8609L57.6451 55.0118C57.6566 54.797 57.3265 54.4237 57.1783 54.4237H56.8485V54.0168H59V54.4237H58.7497C58.6246 54.4237 58.237 54.8307 58.1234 55.0118L56.2903 59.1161L54.9354 62.0786L54.4458 61.8523L55.8805 58.9352L54.0475 55.0343C53.9678 54.8534 53.4895 54.4237 53.3528 54.4237H53.1137V54.0168H55.9713ZM14.4567 51.1447L16.9387 57.3522H16.9959L19.6144 51.1447H21.7776V51.5518H21.3678C21.2085 51.5518 20.7301 52.0041 20.7301 52.1736V58.3472C20.7301 58.5169 21.2085 58.969 21.3678 58.969H21.7776V59.3761H18.5669V58.969H18.9769C19.1362 58.969 19.6144 58.5169 19.6144 58.3472V52.3545L16.5972 59.5231L13.5798 52.2302V58.3472C13.5798 58.5169 14.0582 58.969 14.2175 58.969H14.6275V59.3761H12.043V58.969H12.4528C12.6123 58.969 13.0904 58.5169 13.0904 58.3472V52.1736C13.0904 52.0041 12.6123 51.5518 12.4528 51.5518H12.043V51.1447H14.4567ZM24.4809 53.881C25.3233 53.881 25.8926 54.141 26.3823 54.6272L25.5965 55.8373L25.2663 55.8597C25.4143 55.0344 25.2776 54.2881 24.3556 54.2881C23.2853 54.2881 22.7615 55.1362 22.7615 56.3912C22.7615 57.5783 23.5242 58.5621 24.754 58.5621C25.6876 58.5621 26.0861 58.2342 26.4619 57.6124H26.7921C26.4391 58.7769 25.7216 59.5117 24.3782 59.5117C22.8868 59.5117 21.919 58.2455 21.919 56.7305C21.919 55.0117 23.0687 53.881 24.4809 53.881ZM46.02 53.881C46.6123 53.881 46.9425 54.1636 47.3525 54.1636C47.5118 54.1636 47.6028 54.1297 47.6482 54.0167H47.9442V55.6676H47.6141C47.6141 55.2265 46.988 54.2879 45.986 54.2879C45.3597 54.2879 45.0635 54.5596 45.0635 55.0004C45.0635 55.464 45.3825 55.6335 45.9405 55.871C46.3499 56.0406 46.6578 56.1763 47.1018 56.346C47.6824 56.5721 48.3429 57.0356 48.3429 57.8949C48.3429 58.9126 47.6369 59.5117 46.6237 59.5117C45.9405 59.5117 45.5419 59.1953 45.075 59.1953C44.8589 59.1953 44.8019 59.2517 44.665 59.3762H44.4032V57.4992H44.7334C44.7334 57.9967 45.4624 59.0708 46.6237 59.0708C47.2953 59.0708 47.6709 58.8333 47.6709 58.336C47.6709 57.7367 47.1359 57.5331 46.6578 57.3296C46.2816 57.1714 45.9745 57.0471 45.5418 56.8547C44.8931 56.5608 44.4032 56.131 44.4032 55.3962C44.4032 54.4351 44.9841 53.881 46.02 53.881ZM51.1452 53.8924C52.3634 53.9036 53.0468 54.729 53.1034 55.7692L53.1262 56.1537L49.5397 56.4363C49.5397 57.5104 50.2914 58.5733 51.5097 58.5733C52.4322 58.5733 52.8533 58.2228 53.1832 57.6122H53.5134C53.1606 58.7769 52.4888 59.5005 51.168 59.5005C49.6651 59.5005 48.6742 58.2003 48.6742 56.6963C48.6742 55.1135 49.7561 53.881 51.1452 53.8924ZM30.0822 51.1448V51.5519H29.6722C29.5129 51.5519 29.0345 52.0043 29.0345 52.1737V55.5432L31.9949 52.2643C32.1202 52.1171 31.6534 51.5519 31.4939 51.5519H31.0955V51.1448H34.1013V51.5519H33.7028C33.5433 51.5519 32.7577 52.1737 32.6439 52.298L30.6286 54.4462L33.532 58.2795C33.6687 58.4604 34.3405 58.9691 34.5111 58.9691H35.1146C35.2739 58.9691 35.7067 58.5846 35.7067 58.4037V54.9891C35.7067 54.8194 35.2739 54.4237 35.1146 54.4237H34.7844V54.0168H36.7085V58.4037C36.7085 58.5846 37.1526 58.9691 37.3006 58.9691H37.9609C38.1204 58.9691 38.5532 58.5846 38.5532 58.4037V54.9891C38.5532 54.8194 38.1204 54.4237 37.9609 54.4237H37.6308V54.0168H39.3274L39.5323 55.1134C40.1811 54.4579 40.6823 53.9035 41.6501 53.9035C42.4812 53.9035 43.1417 54.5143 43.1417 55.43V58.4037C43.1417 58.5846 43.5743 58.9691 43.7336 58.9691H44.0069V59.3763H41.2516V58.9691H41.5589C41.7182 58.9691 42.151 58.5846 42.151 58.4037V55.4866C42.151 54.9664 41.8779 54.5707 41.2971 54.5707C40.5343 54.5707 39.5437 55.3171 39.5437 55.6787V58.4037C39.5437 58.5846 39.9765 58.9691 40.136 58.9691H40.4433V59.3763H32.7464L29.8772 55.2605L29.0345 56.165V58.3471C29.0345 58.517 29.5129 58.9691 29.6722 58.9691H30.0822V59.3763H26.8485V58.9691H27.2583C27.4178 58.9691 27.8961 58.517 27.8961 58.3471V52.1737C27.8961 52.0043 27.4178 51.5519 27.2583 51.5519H26.8485V51.1448H30.0822ZM51.1223 54.2994C50.0067 54.2994 49.5624 55.2153 49.5286 56.0519L52.2041 55.8258C52.2951 55.0681 52.1697 54.2994 51.1223 54.2994ZM36.1051 51.405C36.5036 51.405 36.7997 51.665 36.7997 52.0834C36.7997 52.5016 36.5036 52.773 36.1051 52.773C35.7066 52.773 35.3993 52.5016 35.3993 52.0834C35.3993 51.665 35.7066 51.405 36.1051 51.405Z" fill="white"/>
</g>
<defs>
<clipPath id="clip0_297_2936">
<rect width="46.957" height="52.9334" fill="white" transform="translate(12.043 9.55432)"/>
</clipPath>
</defs>
</svg>
